<svg width="39" height="39" viewBox="0 0 39 39" fill="none" xmlns="http://www.w3.org/2000/svg">
<path d="M4.875 10.928C4.59886 10.928 4.375 11.1518 4.375 11.428C4.375 11.7041 4.59886 11.928 4.875 11.928V10.928ZM34.125 11.928C34.4011 11.928 34.625 11.7041 34.625 11.428C34.625 11.1518 34.4011 10.928 34.125 10.928V11.928ZM8.125 11.428V10.928H7.625V11.428H8.125ZM30.875 11.428H31.375V10.928H30.875V11.428ZM29.8055 27.3492L30.2859 27.4879L29.8055 27.3492ZM22.3014 33.8899L22.3847 34.3829L22.3847 34.3829L22.3014 33.8899ZM16.6985 33.8899L16.7818 33.3969L16.7818 33.3969L16.6985 33.8899ZM16.4422 33.8466L16.3589 34.3396L16.3589 34.3396L16.4422 33.8466ZM9.19449 27.3492L8.71411 27.4879L9.19449 27.3492ZM22.5578 33.8466L22.4745 33.3536L22.4745 33.3536L22.5578 33.8466ZM12.7441 8.92025L13.198 9.13004L13.198 9.13004L12.7441 8.92025ZM14.3293 6.79432L13.9956 6.42196L13.9956 6.42196L14.3293 6.79432ZM16.7016 5.37381L16.8756 5.84256L16.8756 5.84256L16.7016 5.37381ZM22.2984 5.37382L22.4724 4.90507L22.4724 4.90507L22.2984 5.37382ZM26.2559 8.92025L26.7097 8.71047L26.7097 8.71047L26.2559 8.92025ZM4.875 11.928H34.125V10.928H4.875V11.928ZM22.4745 33.3536L22.2181 33.3969L22.3847 34.3829L22.6411 34.3396L22.4745 33.3536ZM16.7818 33.3969L16.5255 33.3536L16.3589 34.3396L16.6152 34.3829L16.7818 33.3969ZM30.375 11.428V19.7857H31.375V11.428H30.375ZM8.625 19.7858V11.428H7.625V19.7858H8.625ZM30.375 19.7857C30.375 22.2983 30.0215 24.7982 29.3251 27.2106L30.2859 27.4879C31.0083 24.9853 31.375 22.3921 31.375 19.7857H30.375ZM22.2181 33.3969C20.4186 33.701 18.5814 33.701 16.7818 33.3969L16.6152 34.3829C18.5251 34.7057 20.4749 34.7057 22.3847 34.3829L22.2181 33.3969ZM16.5255 33.3536C13.2639 32.8024 10.6004 30.4166 9.67488 27.2105L8.71411 27.4879C9.74519 31.0597 12.7148 33.7238 16.3589 34.3396L16.5255 33.3536ZM9.67488 27.2105C8.97849 24.7981 8.625 22.2983 8.625 19.7858H7.625C7.625 22.3921 7.99168 24.9853 8.71411 27.4879L9.67488 27.2105ZM22.6411 34.3396C26.2851 33.7238 29.2548 31.0597 30.2859 27.4879L29.3251 27.2106C28.3996 30.4166 25.7361 32.8024 22.4745 33.3536L22.6411 34.3396ZM12.6875 11.428C12.6875 10.6412 12.8603 9.86053 13.198 9.13004L12.2903 8.71047C11.8929 9.57006 11.6875 10.4937 11.6875 11.428H12.6875ZM13.198 9.13004C13.5357 8.39934 14.0325 7.73164 14.663 7.16668L13.9956 6.42196C13.268 7.074 12.6875 7.85108 12.2903 8.71047L13.198 9.13004ZM14.663 7.16668C15.2935 6.60163 16.045 6.15089 16.8756 5.84256L16.5276 4.90507C15.5839 5.25537 14.7231 5.77001 13.9956 6.42196L14.663 7.16668ZM16.8756 5.84256C17.7063 5.53422 18.5982 5.375 19.5 5.375V4.375C18.4812 4.375 17.4713 4.55477 16.5276 4.90507L16.8756 5.84256ZM19.5 5.375C20.4018 5.375 21.2937 5.53422 22.1244 5.84256L22.4724 4.90507C21.5287 4.55477 20.5188 4.375 19.5 4.375V5.375ZM22.1244 5.84256C22.955 6.1509 23.7065 6.60163 24.337 7.16668L25.0044 6.42196C24.2769 5.77001 23.4161 5.25537 22.4724 4.90507L22.1244 5.84256ZM24.337 7.16668C24.9675 7.73164 25.4643 8.39935 25.802 9.13004L26.7097 8.71047C26.3125 7.85108 25.732 7.074 25.0044 6.42196L24.337 7.16668ZM25.802 9.13004C26.1397 9.86053 26.3125 10.6412 26.3125 11.428H27.3125C27.3125 10.4937 27.1071 9.57006 26.7097 8.71047L25.802 9.13004ZM8.125 11.928H30.875V10.928H8.125V11.928Z" fill="#FF0000" fill-opacity="0.8"/>
<path d="M16.25 19.5V26M22.75 19.5V26" stroke="#FF0000" stroke-opacity="0.8" stroke-linecap="round"/>
</svg>
